<svg width="1920" height="579" viewBox="0 0 1920 579" fill="none" xmlns="http://www.w3.org/2000/svg"><mask id="mask0_4_3326" style="mask-type:alpha" maskUnits="userSpaceOnUse" x="0" y="0" width="1920" height="579"><path fill="#C4C4C4" d="M0 0h1920v579H0z"/></mask><g mask="url(#mask0_4_3326)"><path d="M2105.61-24c229.83 0 455.54 115.781 584.63 257.78 89.56 98.746 147.85 222.247 159.7 355.595 12.64 143.728-21.3 304.092-132.29 403.903-95.28 85.572-230.1 110.722-350.67 64.412-80.51-30.87-168.88-47.38-261.24-47.38-92.36 0-180.72 16.51-261.24 47.38-120.57 46.31-255.52 21.16-350.67-64.412-111.12-99.811-145.06-260.175-132.28-403.903 11.71-133.348 70.13-256.849 159.7-355.595C1650.07 91.781 1875.78-24 2105.61-24z" fill="#A8DC00"/><path d="M494.829 1107.52c-229.832 0-455.539-115.778-584.628-257.776-89.565-98.747-147.854-222.247-159.699-355.595-12.643-143.729 21.293-304.093 132.284-403.904C-21.928 4.673 112.884-20.48 233.457 25.833c80.514 30.875 168.881 47.377 261.24 47.377 92.359 0 180.725-16.502 261.239-47.377 120.573-46.312 255.514-21.16 350.674 64.412 111.12 99.811 145.06 260.175 132.28 403.904-11.71 133.348-70.13 256.848-159.7 355.595-128.821 141.865-354.528 257.776-584.361 257.776z" fill="#6EC300"/></g></svg>